<?xml version="1.0" encoding="UTF-8"?>
<!-- Generator: visioncortex VTracer -->
<svg id="svg" version="1.1" xmlns="http://www.w3.org/2000/svg" style="display: block;" viewBox="0 0 1030 762"><path d="M0 0 C1.44722443 -0.00570007 2.89444885 -0.01140015 4.38552856 -0.01727295 C7.4292123 -0.02665092 10.47290586 -0.03322794 13.51660156 -0.03710938 C18.08677636 -0.04677761 22.65649342 -0.07785728 27.2265625 -0.109375 C42.8585015 -0.16491189 58.02588256 0.34858769 73.53564453 2.45800781 C79.77708031 3.27074192 85.98138484 3.74206524 92.2578125 4.203125 C94.60167577 4.58016038 96.93895408 5.00695385 99.2578125 5.515625 C105.49262579 6.84149297 111.73957416 8.04447754 118.0078125 9.203125 C125.20488996 10.56557753 132.21736554 12.16510088 139.2578125 14.203125 C141.31515625 14.65171875 141.31515625 14.65171875 143.4140625 15.109375 C158.82276102 18.58875854 174.7616834 22.87361176 189.2578125 29.203125 C192.02659969 30.35389383 194.79753967 31.49949301 197.5703125 32.640625 C198.96894531 33.21683594 200.36757813 33.79304688 201.80859375 34.38671875 C204.77716523 35.59864653 207.7607029 36.77453645 210.7578125 37.9140625 C218.32915459 41.06520346 225.61569361 44.71778222 232.9453125 48.390625 C234.39615234 49.10798828 235.84699219 49.82535156 237.34179688 50.56445312 C246.93051435 55.35666673 256.13179125 60.5852684 265.2578125 66.203125 C267.7328125 67.6571875 267.7328125 67.6571875 270.2578125 69.140625 C281.75964987 76.18550039 292.71078051 83.79782748 303.2578125 92.203125 C304.21558594 92.96625 305.17335938 93.729375 306.16015625 94.515625 C312.38415407 99.54370739 318.31942109 104.84408885 324.2578125 110.203125 C326.29663845 111.89405604 328.33849912 113.58133232 330.3828125 115.265625 C342.14390201 125.1777489 352.76206172 136.11762401 362.2578125 148.203125 C363.98016082 150.29209877 365.709516 152.3753123 367.4453125 154.453125 C368.27546875 155.44957031 369.105625 156.44601563 369.9609375 157.47265625 C371.84805515 159.7160155 373.76736874 161.93225306 375.6953125 164.140625 C378.2578125 167.203125 378.2578125 167.203125 381.2578125 172.203125 C382.70448656 174.2945714 384.16373047 176.37735722 385.6328125 178.453125 C389.18438419 183.56921541 392.35344305 188.68482305 395.2578125 194.203125 C395.94746094 195.49347656 396.63710938 196.78382813 397.34765625 198.11328125 C401.77632253 206.41795163 406.08771331 214.76594757 410.2578125 223.203125 C410.91265625 224.46769531 411.5675 225.73226562 412.2421875 227.03515625 C414.19928625 231.0821027 415.73960514 235.07794341 417.1953125 239.328125 C419.03304004 244.66540424 420.91348105 249.97569776 422.8828125 255.265625 C431.85996913 280.56227722 434.44022148 306.97415349 434.3828125 333.640625 C434.38667969 335.43306641 434.39054688 337.22550781 434.39453125 339.07226562 C434.37129224 370.68893303 427.49643503 402.94983212 415.2578125 432.203125 C414.60425781 433.79382813 413.95070313 435.38453125 413.27734375 437.0234375 C409.88144491 445.22555383 406.59477924 452.77919698 401.5703125 460.140625 C395.980926 469.9598175 402.1370777 474.69921672 410.0078125 480.078125 C415.40301135 483.84247699 420.35516065 487.80764403 425.2578125 492.203125 C427.91697628 494.21308995 430.58480187 496.21161168 433.2578125 498.203125 C436.26377332 500.50787137 439.26360641 502.82062799 442.2578125 505.140625 C443.7634375 506.30464844 445.2690625 507.46867187 446.8203125 508.66796875 C452.7960207 513.42854615 458.45473383 518.46262389 464.0703125 523.640625 C469.25523963 528.20086212 474.66005241 532.16753052 480.2578125 536.203125 C482.9451824 538.51258351 485.61173816 540.84646504 488.2578125 543.203125 C489.9696875 544.585 491.6815625 545.966875 493.4453125 547.390625 C527.18322074 574.92602086 541.62553355 612.24911123 514.78515625 650.75 C491.53354457 679.92580729 455.17108159 685.54491535 420.2578125 677.203125 C419.03707031 676.9246875 417.81632813 676.64625 416.55859375 676.359375 C398.05021418 671.79620384 379.04699879 664.633178 362.03125 656.078125 C358.03596635 653.97364638 358.03596635 653.97364638 352.5703125 652.390625 C346.70280627 650.35733076 341.72965415 647.94058622 336.36328125 644.88671875 C331.91431777 642.47476497 327.27589935 640.62297706 322.6015625 638.6953125 C314.10898967 635.12221783 306.38131383 631.05712034 298.66015625 626.0234375 C290.64466112 621.73500957 286.68583307 623.52622316 279.2578125 628.203125 C276.71616609 629.78649085 274.17449734 631.36982084 271.6328125 632.953125 C270.25222656 633.82195313 268.87164063 634.69078125 267.44921875 635.5859375 C262.28422662 638.81104908 257.06346761 641.93629282 251.8359375 645.05859375 C246.27836199 648.38949872 240.76497416 651.78969992 235.2578125 655.203125 C233.93265625 656.02039063 232.6075 656.83765625 231.2421875 657.6796875 C222.58354656 663.04674771 214.18666114 668.643722 205.92578125 674.609375 C200.56225862 678.46785715 195.21736036 682.22874469 189.6328125 685.765625 C184.76258798 688.88030347 180.21842047 692.18391556 175.625 695.6796875 C166.97110442 702.16508952 158.09210567 708.36579173 149.0703125 714.328125 C144.80514545 717.1715697 140.65217648 720.0691392 136.5078125 723.078125 C76.56393336 766.1898161 13.52035473 772.67595561 -52.7421875 739.203125 C-54.8871875 738.378125 -57.0321875 737.553125 -59.2421875 736.703125 C-65.95956094 734.11951983 -72.04246104 731.15776589 -78.3046875 727.640625 C-82.06937273 725.57269931 -85.79478035 723.87318187 -89.7421875 722.203125 C-91.3921875 721.213125 -93.0421875 720.223125 -94.7421875 719.203125 C-96.1859375 718.419375 -97.6296875 717.635625 -99.1171875 716.828125 C-103.7421875 714.203125 -103.7421875 714.203125 -107.1171875 711.765625 C-111.77298605 708.47445706 -116.73378179 705.92508462 -121.7421875 703.203125 C-127.04470537 699.90378055 -132.26555024 696.52723834 -137.4296875 693.015625 C-141.58487931 690.18244305 -141.58487931 690.18244305 -145.6796875 688.265625 C-150.74926019 685.69184194 -155.11616439 682.514937 -159.7421875 679.203125 C-162.44798142 677.34525452 -165.15649407 675.49133962 -167.8671875 673.640625 C-183.7421875 662.71718455 -183.7421875 662.71718455 -183.7421875 660.203125 C-185.3921875 659.543125 -187.0421875 658.883125 -188.7421875 658.203125 C-190.93736068 656.47226254 -193.0797147 654.67333078 -195.1796875 652.828125 C-211.04316023 638.93119847 -230.53996499 641.29770073 -250.27734375 647.2734375 C-254.21066754 648.32882765 -257.80033534 648.55109314 -261.8671875 648.703125 C-267.05855748 648.95266725 -271.9045116 649.38725555 -277.0546875 650.203125 C-284.49956706 651.31637802 -291.82033596 651.67461984 -299.3359375 651.95703125 C-303.86946551 652.10626818 -303.86946551 652.10626818 -308.7421875 653.203125 C-314.94995293 653.3225051 -320.64592991 653.42237652 -326.7421875 652.203125 C-329.93626606 652.12855507 -333.13052629 652.05766969 -336.32519531 652.01538086 C-357.67903074 651.66479961 -376.78032112 648.50765441 -395.7421875 638.203125 C-396.99773437 637.55085937 -398.25328125 636.89859375 -399.546875 636.2265625 C-407.32577099 632.02763155 -413.33151885 627.27189132 -419.7421875 621.203125 C-422.72123543 618.84310002 -425.71804601 616.50508345 -428.7421875 614.203125 C-433.40551588 610.47246229 -436.84943982 606.69991973 -440.7421875 602.203125 C-441.8353125 601.171875 -442.9284375 600.140625 -444.0546875 599.078125 C-471.93273478 569.78254989 -489.79962188 524.55606998 -496.05078125 485.3671875 C-496.48861144 481.46472092 -496.48861144 481.46472092 -497.7421875 479.203125 C-498.22024836 473.64566752 -498.61410955 468.08827227 -498.9921875 462.5234375 C-499.12264938 456.69045143 -499.12264938 456.69045143 -500.7421875 451.203125 C-500.84038477 448.03770699 -500.87192842 444.87006223 -500.8671875 441.703125 C-500.86976563 439.9809375 -500.87234375 438.25875 -500.875 436.484375 C-500.7421875 432.203125 -500.7421875 432.203125 -499.7421875 430.203125 C-499.60682928 426.34992769 -499.51004234 422.49536163 -499.4296875 418.640625 C-499.02861314 404.60990374 -498.20025258 389.57732023 -493.7421875 376.203125 C-493.61199219 374.54152344 -493.48179687 372.87992187 -493.34765625 371.16796875 C-492.76289623 365.40713935 -491.63032743 360.32792343 -490.0546875 354.765625 C-489.51585937 352.86167969 -488.97703125 350.95773437 -488.421875 348.99609375 C-487.86757813 347.08441406 -487.31328125 345.17273438 -486.7421875 343.203125 C-486.22914063 341.40488281 -485.71609375 339.60664063 -485.1875 337.75390625 C-482.52960938 328.63031797 -479.58130321 319.91136308 -475.7421875 311.203125 C-474.63597694 308.45394654 -473.53198285 305.70387562 -472.4296875 302.953125 C-468.94243247 294.47652891 -464.91613053 286.35762374 -460.7421875 278.203125 C-460.11570312 276.91921875 -459.48921875 275.6353125 -458.84375 274.3125 C-448.2644366 252.63570275 -435.50263541 232.2741462 -420.7421875 213.203125 C-419.94167969 212.15898437 -419.14117187 211.11484375 -418.31640625 210.0390625 C-416.64458606 207.86023619 -414.96881184 205.68443801 -413.2890625 203.51171875 C-411.55819422 201.26318281 -409.83985037 199.00496177 -408.1328125 196.73828125 C-403.6393767 190.79469117 -399.07083617 185.42929966 -393.7421875 180.203125 C-392.7109375 178.82125 -391.6796875 177.439375 -390.6171875 176.015625 C-387.7421875 172.203125 -387.7421875 172.203125 -382.7421875 168.203125 C-379.52794857 164.64450332 -376.40851199 161.07304864 -373.4921875 157.265625 C-370.13881084 153.53118281 -366.39712831 150.55062752 -362.4609375 147.44921875 C-359.7078983 145.174797 -357.24609415 142.7467762 -354.7421875 140.203125 C-339.27111312 126.12048037 -339.27111312 126.12048037 -332.7421875 122.203125 C-330.06149641 119.88591745 -327.39690262 117.55004706 -324.7421875 115.203125 C-318.26294776 109.88682573 -311.63435367 104.96807939 -304.7421875 100.203125 C-302.9065625 98.841875 -301.0709375 97.480625 -299.1796875 96.078125 C-294.47979747 92.72877808 -289.81253835 89.93331392 -284.7421875 87.203125 C-282.7621875 85.718125 -282.7621875 85.718125 -280.7421875 84.203125 C-278.2671875 83.213125 -278.2671875 83.213125 -275.7421875 82.203125 C-274.3603125 81.275 -272.9784375 80.346875 -271.5546875 79.390625 C-266.739764 76.20151983 -261.94156468 73.71105988 -256.7421875 71.203125 C-254.36558205 70.01884134 -251.99066572 68.8311637 -249.6171875 67.640625 C-248.41707031 67.04121094 -247.21695313 66.44179687 -245.98046875 65.82421875 C-243.5846765 64.62487764 -241.19342673 63.41645286 -238.8046875 62.203125 C-232.49926803 59.09891849 -226.1158132 56.16410072 -219.7421875 53.203125 C-218.11253052 52.42340332 -218.11253052 52.42340332 -216.44995117 51.62792969 C-207.49629786 47.3746075 -198.44140242 43.60507491 -189.1796875 40.078125 C-187.88611328 39.57925781 -186.59253906 39.08039062 -185.25976562 38.56640625 C-172.55163311 33.68699296 -159.79150922 29.09575706 -146.7421875 25.203125 C-145.15664063 24.72746094 -143.57109375 24.25179688 -141.9375 23.76171875 C-138.46714766 22.72061305 -134.99578636 21.68286478 -131.5234375 20.6484375 C-127.74791982 19.50714539 -123.99117548 18.30375569 -120.2421875 17.078125 C-111.50533171 14.55787814 -102.66857652 12.90622966 -93.7421875 11.203125 C-90.32491604 10.51863752 -86.90823664 9.83118682 -83.4921875 9.140625 C-81.00751953 8.64755859 -81.00751953 8.64755859 -78.47265625 8.14453125 C-75.5353853 7.55998765 -72.60005235 6.96549957 -69.66796875 6.35546875 C-60.23817528 4.45806845 -50.84531135 3.43910738 -41.26171875 2.6328125 C-36.6381241 2.27108243 -36.6381241 2.27108243 -31.7421875 1.203125 C-21.17732927 0.25189071 -10.60149884 0.03349454 0 0 Z " transform="translate(500.7421875,-0.203125)" style="fill: #F3F3EB;"/><path d="M0 0 C2.2275 0.45375 4.455 0.9075 6.75 1.375 C58.23633106 12.52410819 95.09209349 34.12945462 85 93 C82.15486466 100.11283834 79.55774144 99.05539395 72.1875 100.1875 C47.66648506 104.3401117 23.20898795 111.06696824 0 120 C-1.55074219 120.59683594 -3.10148437 121.19367188 -4.69921875 121.80859375 C-7.74420734 122.99148405 -10.78606091 124.18248675 -13.82421875 125.3828125 C-17.58878317 126.84074484 -21.36994582 128.18892079 -25.1875 129.5 C-31.14181492 131.606703 -36.79342567 134.12612482 -42.48828125 136.8515625 C-47.14359287 139.06837756 -51.8262859 141.22148082 -56.51416016 143.3684082 C-67.44766539 148.37979304 -78.28215379 153.541376 -89 159 C-90.85625 159.9075 -92.7125 160.815 -94.625 161.75 C-104.22787942 166.55790194 -113.59857485 171.81321503 -123 177 C-124.0617041 177.58442871 -125.1234082 178.16885742 -126.21728516 178.77099609 C-137.41239883 184.94259705 -148.53711946 191.13264096 -159.2109375 198.18359375 C-163.0279907 200.66948974 -166.99795541 202.82746151 -171 205 C-173.12622178 206.26878812 -175.25116384 207.53972259 -177.375 208.8125 C-183 212 -183 212 -186 212 C-186 212.66 -186 213.32 -186 214 C-188.33333333 214.66666667 -190.66666667 215.33333333 -193 216 C-193 216.66 -193 217.32 -193 218 C-195.18267535 219.34912182 -197.42621784 220.59973275 -199.6875 221.8125 C-215.93435602 230.75401175 -231.46943528 240.88093517 -247 251 C-249.97908402 252.91679512 -252.95825025 254.83346248 -255.9375 256.75 C-262.05778257 260.70551596 -268.05240579 264.79093333 -274 269 C-274.66 269.33 -275.32 269.66 -276 270 C-264.69206225 280.22787423 -251.85364804 288.87413055 -239 297 C-237.453125 298.11375 -235.90625 299.2275 -234.3125 300.375 C-216.01852199 312.8579497 -193.58405067 326.60398733 -172 332 C-172 332.66 -172 333.32 -172 334 C-169.00229277 334.67690163 -166.00171263 335.34108747 -163 336 C-159.66372498 337.32595546 -156.33052486 338.65966682 -153 340 C-149.35243665 341.06757952 -145.68245388 342.05979901 -142 343 C-140.68902344 343.34289062 -139.37804687 343.68578125 -138.02734375 344.0390625 C-125.167919 347.35224144 -113.32121284 348.20782517 -100.0625 348.25 C-98.47630859 348.270625 -96.89011719 348.29125 -95.25585938 348.3125 C-80.99088559 348.35909853 -67.56222087 346.52074029 -54 342 C-51.2775 341.1646875 -51.2775 341.1646875 -48.5 340.3125 C-25.54094985 332.14437639 -3.66094481 320.5632403 16.52734375 306.97265625 C19.71485741 304.8541428 22.96555645 302.82943441 26.25390625 300.87109375 C31.19120437 298.02514937 31.19120437 298.02514937 36 294 C37.340625 293.2575 38.68125 292.515 40.0625 291.75 C44.59004404 289.2283299 48.86160556 286.47921766 53.15234375 283.578125 C58.2995686 280.12922307 63.49397869 276.75355005 68.6875 273.375 C74.09025566 269.86012878 79.48773606 266.34537439 84.83203125 262.7421875 C89 260 89 260 95 256.75 C99.90121972 254.67105283 99.90121972 254.67105283 101 252 C103.65693507 250.64737851 106.32604769 249.31866141 109 248 C110.423125 247.113125 111.84625 246.22625 113.3125 245.3125 C119.87184874 241.49221997 126.62360323 238.32756774 133.51171875 235.1484375 C137.95657262 233.10252308 137.95657262 233.10252308 141.83203125 230.7265625 C145 229 145 229 149 229 C149 228.34 149 227.68 149 227 C151.20951493 225.97070411 153.4718602 225.05438251 155.75 224.1875 C160.60105418 222.31540304 165.39848654 220.40670268 170.1875 218.375 C213.64876751 200.61663263 263.26477494 198.8097942 308 213 C311.155625 213.7425 311.155625 213.7425 314.375 214.5 C323.42882062 216.91435217 331.67404394 220.76646302 340 225 C343.78129631 226.68807871 347.52925776 228.18635836 351.4375 229.5625 C355 231 355 231 355 233 C357.475 233.99 357.475 233.99 360 235 C375 243.25974026 375 243.25974026 375 246 C376.32 246.33 377.64 246.66 379 247 C383.51520529 249.9554071 387.24345743 253.15183444 391 257 C392.299375 258.11375 393.59875 259.2275 394.9375 260.375 C396.278125 261.57125 397.61875 262.7675 399 264 C400.7325 265.485 400.7325 265.485 402.5 267 C416.0584503 288.69352048 391.94922677 322.94467347 375.0625 335.4375 C351.00804681 351.64925401 324.03199384 353.69765455 296 347 C294.77925781 346.7215625 293.55851563 346.443125 292.30078125 346.15625 C273.79240168 341.59307884 254.78918629 334.430053 237.7734375 325.875 C233.77815385 323.77052138 233.77815385 323.77052138 228.3125 322.1875 C222.44499377 320.15420576 217.47184165 317.73746122 212.10546875 314.68359375 C207.65650527 312.27163997 203.01808685 310.41985206 198.34375 308.4921875 C189.85117717 304.91909283 182.12350133 300.85399534 174.40234375 295.8203125 C166.38684862 291.53188457 162.42802057 293.32309816 155 298 C152.45835359 299.58336585 149.91668484 301.16669584 147.375 302.75 C145.99441406 303.61882812 144.61382813 304.48765625 143.19140625 305.3828125 C138.02641412 308.60792408 132.80565511 311.73316782 127.578125 314.85546875 C122.02054949 318.18637372 116.50716166 321.58657492 111 325 C109.67484375 325.81726563 108.3496875 326.63453125 106.984375 327.4765625 C98.32573406 332.84362271 89.92884864 338.440597 81.66796875 344.40625 C76.30444612 348.26473215 70.95954786 352.02561969 65.375 355.5625 C60.50477548 358.67717847 55.96060797 361.98079056 51.3671875 365.4765625 C42.71329192 371.96196452 33.83429317 378.16266673 24.8125 384.125 C20.54733295 386.9684447 16.39436398 389.8660142 12.25 392.875 C-47.69387914 435.9866911 -110.73745777 442.47283061 -177 409 C-180.2175 407.7625 -180.2175 407.7625 -183.5 406.5 C-190.21737344 403.91639483 -196.30027354 400.95464089 -202.5625 397.4375 C-206.32718523 395.36957431 -210.05259285 393.67005687 -214 392 C-216.475 390.515 -216.475 390.515 -219 389 C-221.165625 387.824375 -221.165625 387.824375 -223.375 386.625 C-228 384 -228 384 -231.375 381.5625 C-236.03079855 378.27133206 -240.99159429 375.72195962 -246 373 C-251.30251787 369.70065555 -256.52336274 366.32411334 -261.6875 362.8125 C-265.84269181 359.97931805 -265.84269181 359.97931805 -269.9375 358.0625 C-275.00707269 355.48871694 -279.37397689 352.311812 -284 349 C-286.70579392 347.14212952 -289.41430657 345.28821462 -292.125 343.4375 C-308 332.51405955 -308 332.51405955 -308 330 C-309.65 329.34 -311.3 328.68 -313 328 C-315.19517318 326.26913754 -317.3375272 324.47020578 -319.4375 322.625 C-335.30814152 308.72179338 -354.79730635 311.10525021 -374.54296875 317.0703125 C-379.8232907 318.49033128 -385.05617245 318.4680475 -390.5 318.65234375 C-394.97970171 318.86641754 -394.97970171 318.86641754 -399.125 320.06640625 C-412.1489506 323.41429678 -414.15370273 315.99458486 -419 305 C-420.3098149 302.98451923 -421.6407991 300.98251121 -423 299 C-424.36125 296.215625 -424.36125 296.215625 -425.75 293.375 C-428.37086891 288.01473042 -431.52179647 283.21357365 -434.91015625 278.296875 C-438.11954254 273.23384318 -440.65685449 267.87246688 -443.23828125 262.46875 C-444.98830763 258.77573296 -444.98830763 258.77573296 -448 255 C-449.38378842 251.68729438 -450.71677513 248.35294241 -452 245 C-452.99 242.525 -452.99 242.525 -454 240 C-454 237.69 -454 235.38 -454 233 C-454.66 233 -455.32 233 -456 233 C-457.84534829 210.95168277 -451.39042653 190.94612665 -444.41015625 170.296875 C-442.68379608 165.03649776 -441.32630498 159.71929794 -439.96484375 154.35546875 C-437.84982538 147 -437.84982538 147 -435 147 C-434.34 145.02 -433.68 143.04 -433 141 C-425.99500472 133.49464792 -421.2706839 131.03025147 -411 129 C-411 128.34 -411 127.68 -411 127 C-401.95966575 123.98655525 -391.83036706 125.7797553 -384 131 C-382.783125 131.391875 -381.56625 131.78375 -380.3125 132.1875 C-374.26171389 134.25188585 -368.50858318 136.77922301 -362.671875 139.37890625 C-359.80621437 140.64406493 -356.90846525 141.8366139 -354 143 C-353.01 143.99 -352.02 144.98 -351 146 C-349.411875 146.4125 -347.82375 146.825 -346.1875 147.25 C-340.09187253 148.97401585 -335.11709312 151.27747771 -329.53125 154.1796875 C-326.26433942 155.86373654 -322.97235999 157.42124535 -319.625 158.9375 C-299.57142677 168.11539302 -299.57142677 168.11539302 -293.97265625 172.21875 C-282.20620808 179.2693418 -262.39298313 171.69840713 -250.39453125 168.21875 C-244.59761493 166.61107187 -238.95273419 165.12016826 -232.9375 164.75 C-228.14233442 161.89330561 -229.81406273 158.05028831 -230.0625 153.00390625 C-229.89509549 142.27955502 -224.71146631 132.80517724 -219 124 C-217.86304688 121.94458984 -217.86304688 121.94458984 -216.703125 119.84765625 C-211.79099369 111.03847279 -206.347943 102.54913203 -201 94 C-200.08347656 92.52273438 -199.16695313 91.04546875 -198.22265625 89.5234375 C-192.23898931 80 -192.23898931 80 -190 80 C-189.34 78.35 -188.68 76.7 -188 75 C-185.8214766 71.73645328 -183.58451163 68.51166622 -181.3125 65.3125 C-180.11238281 63.61738281 -178.91226562 61.92226563 -177.67578125 60.17578125 C-176.46277344 58.46777344 -175.24976563 56.75976562 -174 55 C-172.80375 53.288125 -171.6075 51.57625 -170.375 49.8125 C-150.02208202 20.79074658 -150.02208202 20.79074658 -141 12 C-139.80375 10.72125 -138.6075 9.4425 -137.375 8.125 C-100.43999441 -26.69943384 -43.92575954 -9.8479676 0 0 Z " transform="translate(625,330)" style="fill: #E4E0D7;"/><path d="M0 0 C1.9298877 0.00273926 3.85977539 0.00547852 5.84814453 0.00830078 C18.8952396 0.10424341 31.28508361 0.92340465 44.125 3.3125 C46.811105 3.67709597 49.4985054 4.03236562 52.1875 4.375 C58.125 5.3125 58.125 5.3125 63.125 7.3125 C65.64143844 8.03629166 68.16293692 8.74257696 70.6875 9.4375 C92.08724193 15.68519863 111.53178975 25.43713099 130.67578125 36.69921875 C133.38659913 38.2914375 136.11025141 39.86238377 138.85546875 41.39453125 C144.12177848 44.33878967 147.29331632 46.5228954 151.125 51.3125 C153.32831369 53.00025999 155.58354193 54.62150354 157.875 56.1875 C163.27019885 59.95185199 168.22234815 63.91701903 173.125 68.3125 C175.78416378 70.32246495 178.45198937 72.32098668 181.125 74.3125 C184.13096082 76.61724637 187.13079391 78.93000299 190.125 81.25 C192.3834375 82.99603516 192.3834375 82.99603516 194.6875 84.77734375 C200.6632082 89.53792115 206.32192133 94.57199889 211.9375 99.75 C217.12242713 104.31023712 222.52723991 108.27690552 228.125 112.3125 C230.8123699 114.62195851 233.47892566 116.95584004 236.125 119.3125 C237.836875 120.694375 239.54875 122.07625 241.3125 123.5 C254.94486995 134.62614037 280.2167823 155.94537082 275.125 176.3125 C272.91776282 173.93547534 270.7260278 171.5417138 268.625 169.0703125 C265.49167664 165.61386516 261.88727067 163.04869685 258.125 160.3125 C258.125 159.6525 258.125 158.9925 258.125 158.3125 C256.805 157.6525 255.485 156.9925 254.125 156.3125 C247.125 152.57916667 247.125 152.57916667 247.125 150.3125 C244.65 149.3225 244.65 149.3225 242.125 148.3125 C239.87430327 146.99442731 237.64602879 145.63757054 235.4375 144.25 C231.35736836 141.64613194 231.35736836 141.64613194 227.125 139.3125 C227.125 138.6525 227.125 137.9925 227.125 137.3125 C225.145 136.9825 223.165 136.6525 221.125 136.3125 C219.475 135.3225 217.825 134.3325 216.125 133.3125 C212.81105243 131.93168851 209.47384779 130.60637301 206.125 129.3125 C205.03832031 128.88453125 203.95164062 128.4565625 202.83203125 128.015625 C197.30808535 125.85435733 191.82993933 123.91662408 186.125 122.3125 C183.64519544 121.50194899 181.1660603 120.68934786 178.6875 119.875 C170.56005761 117.34398826 162.53283335 115.60882971 154.125 114.3125 C152.35640625 114.03277344 150.5878125 113.75304687 148.765625 113.46484375 C129.22780696 110.67927951 109.61241225 109.70911718 90.125 113.3125 C87.0625 113.75 84 114.1875 80.9375 114.625 C64.55805568 117.20781254 48.95343996 122.6268406 33.6875 129 C28.125 131.3125 28.125 131.3125 23.875 132.5 C20.80532743 132.92902914 20.80532743 132.92902914 21.125 135.3125 C19.825625 135.828125 18.52625 136.34375 17.1875 136.875 C10.61832343 139.51621532 4.55895175 142.71344906 -1.66796875 146.06640625 C-5.27066264 147.98985006 -8.89483542 149.82999106 -12.5625 151.625 C-17.68614149 154.08421382 -17.68614149 154.08421382 -21.4375 156.6875 C-23.875 158.3125 -23.875 158.3125 -26.875 158.3125 C-27.205 159.3025 -27.535 160.2925 -27.875 161.3125 C-31.51527006 163.36015191 -35.18653058 165.35300062 -38.875 167.3125 C-41.89595822 169.28070005 -44.89276315 171.28610829 -47.875 173.3125 C-50.58035529 175.0671003 -53.28903498 176.81657959 -56 178.5625 C-65.69963514 184.82720284 -75.30459523 191.22747678 -84.875 197.6875 C-88.47652285 200.05099937 -92.1368759 202.17642908 -95.875 204.3125 C-97.133125 205.158125 -98.39125 206.00375 -99.6875 206.875 C-107.28196323 211.90747563 -115.08059626 216.59744863 -122.875 221.3125 C-125.29199219 222.78589844 -125.29199219 222.78589844 -127.7578125 224.2890625 C-159.02549557 242.76325082 -190.44081541 255.69995228 -227.0625 255.625 C-229.39538086 255.64916992 -229.39538086 255.64916992 -231.77539062 255.67382812 C-247.16437698 255.68021625 -261.37752308 253.56982679 -275.875 248.3125 C-278.040625 247.6525 -280.20625 246.9925 -282.4375 246.3125 C-299.875 240.89502427 -299.875 240.89502427 -299.875 238.3125 C-301.855 237.9825 -303.835 237.6525 -305.875 237.3125 C-329.71264725 228.53319964 -352.40225225 214.91689159 -373.078125 200.28515625 C-374.9309267 198.97836175 -376.80621431 197.70283759 -378.703125 196.4609375 C-382.71227502 193.74538022 -386.53261502 190.82150976 -390.375 187.875 C-391.8290625 186.76253906 -393.283125 185.65007812 -394.78125 184.50390625 C-396.80765625 182.92416016 -396.80765625 182.92416016 -398.875 181.3125 C-400.71578125 179.93384766 -400.71578125 179.93384766 -402.59375 178.52734375 C-403.72296875 177.43099609 -403.72296875 177.43099609 -404.875 176.3125 C-403.39 175.3225 -403.39 175.3225 -401.875 174.3125 C-399.93726881 172.95866418 -397.99980701 171.60444275 -396.0625 170.25 C-390.24087874 166.21617152 -384.33606073 162.34076329 -378.36328125 158.53515625 C-376.16709837 157.13579672 -373.9761845 155.72809905 -371.79296875 154.30859375 C-363.85218241 149.14855133 -355.81161277 144.15571646 -347.75 139.1875 C-346.66557617 138.518396 -345.58115234 137.84929199 -344.46386719 137.15991211 C-323.5620733 124.3125 -323.5620733 124.3125 -320.875 124.3125 C-320.875 123.6525 -320.875 122.9925 -320.875 122.3125 C-316.875 120.3125 -316.875 120.3125 -313.875 120.3125 C-313.875 119.6525 -313.875 118.9925 -313.875 118.3125 C-311.72850792 117.13058966 -309.52990755 116.04280585 -307.3125 115 C-302.09180635 112.46812052 -297.55256368 109.75448082 -292.875 106.3125 C-289.21989749 104.29144332 -285.55242375 102.29265125 -281.875 100.3125 C-280.35003906 99.39597656 -278.82507813 98.47945312 -277.25390625 97.53515625 C-225.46421948 66.50647681 -225.46421948 66.50647681 -198.875 55.3125 C-195.03766903 53.57128334 -191.20477691 51.8202694 -187.375 50.0625 C-186.29694092 49.56943359 -185.21888184 49.07636719 -184.1081543 48.56835938 C-178.60200712 46.04569013 -173.13108462 43.46665013 -167.6875 40.8125 C-116.19835973 16.71859409 -56.94594078 -0.16425278 0 0 Z " transform="translate(752.875,423.6875)" style="fill: #F6F6EE;"/><path d="M0 0 C2.2275 0.45375 4.455 0.9075 6.75 1.375 C58.23633106 12.52410819 95.09209349 34.12945462 85 93 C82.15486466 100.11283834 79.55774144 99.05539395 72.1875 100.1875 C47.66648506 104.3401117 23.20898795 111.06696824 0 120 C-1.55074219 120.59683594 -3.10148438 121.19367188 -4.69921875 121.80859375 C-7.74420734 122.99148405 -10.78606091 124.18248675 -13.82421875 125.3828125 C-17.58878317 126.84074484 -21.36994582 128.18892079 -25.1875 129.5 C-31.14181492 131.606703 -36.79342567 134.12612482 -42.48828125 136.8515625 C-47.14359287 139.06837756 -51.8262859 141.22148082 -56.51416016 143.3684082 C-67.44766539 148.37979304 -78.28215379 153.541376 -89 159 C-90.85625 159.9075 -92.7125 160.815 -94.625 161.75 C-104.22787942 166.55790194 -113.59857485 171.81321503 -123 177 C-124.0617041 177.58442871 -125.1234082 178.16885742 -126.21728516 178.77099609 C-137.41239883 184.94259705 -148.53711946 191.13264096 -159.2109375 198.18359375 C-163.0279907 200.66948974 -166.99795541 202.82746151 -171 205 C-173.08427827 206.24842375 -175.16756133 207.4985101 -177.25 208.75 C-191.52373904 216.81776555 -202.33992653 205.63259651 -213 196 C-213 195.34 -213 194.68 -213 194 C-213.66 194 -214.32 194 -215 194 C-230.75526289 170.81300934 -234.75298119 148.75468473 -219 124 C-217.86111328 121.93878906 -217.86111328 121.93878906 -216.69921875 119.8359375 C-211.78542797 111.03235865 -206.34579152 102.5456927 -201 94 C-200.08347656 92.52273438 -199.16695313 91.04546875 -198.22265625 89.5234375 C-192.23898931 80 -192.23898931 80 -190 80 C-189.34 78.35 -188.68 76.7 -188 75 C-185.8214766 71.73645328 -183.58451163 68.51166622 -181.3125 65.3125 C-180.11238281 63.61738281 -178.91226563 61.92226563 -177.67578125 60.17578125 C-176.46277344 58.46777344 -175.24976563 56.75976562 -174 55 C-172.80375 53.288125 -171.6075 51.57625 -170.375 49.8125 C-150.02208202 20.79074658 -150.02208202 20.79074658 -141 12 C-139.80375 10.72125 -138.6075 9.4425 -137.375 8.125 C-100.43999441 -26.69943384 -43.92575954 -9.8479676 0 0 Z " transform="translate(625,330)" style="fill: #323940;"/><path d="M0 0 C1.216875 0.391875 2.43375 0.78375 3.6875 1.1875 C9.73828611 3.25188585 15.49141682 5.77922301 21.328125 8.37890625 C24.19378563 9.64406493 27.09153475 10.8366139 30 12 C30.99 12.99 31.98 13.98 33 15 C34.588125 15.4125 36.17625 15.825 37.8125 16.25 C43.90812747 17.97401585 48.88290688 20.27747771 54.46875 23.1796875 C57.73566058 24.86373654 61.02764001 26.42124535 64.375 27.9375 C69.40931755 30.24489554 74.40349015 32.6224391 79.375 35.0625 C80.66148437 35.69285156 81.94796875 36.32320313 83.2734375 36.97265625 C90.67290503 40.99815274 96.7907208 44.97680199 100 53 C100.66 53.66 101.32 54.32 102 55 C102.99 57.475 102.99 57.475 104 60 C104.66 61.0725 105.32 62.145 106 63.25 C112.63726094 75.69486426 110.87692631 91.16089299 107.75390625 104.4375 C106.46241041 110.54031973 105.99186762 116.35302409 106.0703125 122.59375 C106.19174043 135.70796665 105.99533956 142.71310249 94 149 C92.30875 150.093125 90.6175 151.18625 88.875 152.3125 C86.93625 153.529375 84.9975 154.74625 83 156 C75.00100165 161.49979346 67.10245415 167.12442006 59.375 173 C50.96521972 179.25844114 46.24200967 181.45060752 35.625 182 C26.71150329 182.59782365 18.6282294 183.86933446 10.01171875 186.12109375 C4.39331222 187.35200073 -1.11312331 187.59006754 -6.8515625 187.72265625 C-11.03110479 187.87313311 -11.03110479 187.87313311 -15.0859375 189.05859375 C-28.13742849 192.40613186 -30.13759791 185.03112117 -35 174 C-36.3098149 171.98451923 -37.6407991 169.98251121 -39 168 C-39.9075 166.14375 -40.815 164.2875 -41.75 162.375 C-44.37086891 157.01473042 -47.52179647 152.21357365 -50.91015625 147.296875 C-54.11954254 142.23384318 -56.65685449 136.87246688 -59.23828125 131.46875 C-60.98830763 127.77573296 -60.98830763 127.77573296 -64 124 C-65.38378842 120.68729438 -66.71677513 117.35294241 -68 114 C-68.66 112.35 -69.32 110.7 -70 109 C-70 106.69 -70 104.38 -70 102 C-70.66 102 -71.32 102 -72 102 C-73.84534829 79.95168277 -67.39042653 59.94612665 -60.41015625 39.296875 C-58.68379608 34.03649776 -57.32630498 28.71929794 -55.96484375 23.35546875 C-53.84982538 16 -53.84982538 16 -51 16 C-50.34 14.02 -49.68 12.04 -49 10 C-41.99500472 2.49464792 -37.2706839 0.03025147 -27 -2 C-27 -2.66 -27 -3.32 -27 -4 C-17.95966575 -7.01344475 -7.83036706 -5.2202447 0 0 Z " transform="translate(241,461)" style="fill: #313940;"/><path d="M0 0 C3.01253906 -0.02513672 3.01253906 -0.02513672 6.0859375 -0.05078125 C16.1441908 0.60889263 22.89422492 5.89231803 31.0625 11.375 C32.17560547 12.10783203 33.28871094 12.84066406 34.43554688 13.59570312 C42.625 19.06370708 42.625 19.06370708 42.625 21.3125 C43.945 21.6425 45.265 21.9725 46.625 22.3125 C49.9901226 24.93893715 53.32494344 27.60476129 56.625 30.3125 C57.285 30.6425 57.945 30.9725 58.625 31.3125 C60.08304581 58.71161084 50.12207249 91.22193648 39.625 116.3125 C38.97144531 117.90320313 38.31789063 119.49390625 37.64453125 121.1328125 C34.2484833 129.33528896 30.88492023 136.86881203 26 144.3125 C23.34317918 148.28296755 23.34317918 148.28296755 22.625 153.3125 C18.23428407 152.21482102 15.11990577 150.48667567 11.1875 148.25 C9.75277344 147.4353125 8.31804687 146.620625 6.83984375 145.78125 C3.25148334 143.67944853 -0.25155118 141.49613784 -3.75 139.25 C-11.56187082 134.38691705 -19.90521426 130.86434563 -28.375 127.3125 C-29.65761719 126.76464844 -30.94023438 126.21679688 -32.26171875 125.65234375 C-40.26643226 122.32626194 -48.34779792 119.72233298 -56.6953125 117.390625 C-60.375 116.3125 -60.375 116.3125 -65.375 114.3125 C-68.57400114 113.73712028 -71.7840854 113.22176627 -75 112.75 C-95.02424768 109.7908271 -93.51388782 89.87466786 -92.375 72.3125 C-90.51030701 64.55634166 -86.42746133 58.41755745 -81.375 52.3125 C-80.6325 51.3225 -79.89 50.3325 -79.125 49.3125 C-75.27870158 45.11653808 -70.86693584 41.77708311 -66.375 38.3125 C-64.94414063 37.18585938 -63.51328125 36.05921875 -62.0390625 34.8984375 C-54.63249655 29.08336506 -47.22220611 23.52044794 -39.375 18.3125 C-37.21192981 16.66826588 -35.06443864 15.00321301 -32.9375 13.3125 C-22.18955286 4.96555626 -13.78105497 0.0264681 0 0 Z " transform="translate(876.375,315.6875)" style="fill: #33393F;"/><path d="M0 0 C1.670625 0.38285156 1.670625 0.38285156 3.375 0.7734375 C13.33963657 4.14509255 21.39156628 14.16778226 28 22 C30.0110229 23.98913422 32.03280171 25.96742565 34.0625 27.9375 C38.80761303 32.61777298 42.33748716 37.42299181 46 43 C48.65315054 45.34869065 51.32098607 47.68085362 54 50 C57.13273194 53.61808477 60.0973848 57.20882912 63 61 C64.16789062 62.485 64.16789062 62.485 65.359375 64 C78.82129472 82.0696909 80.01394671 101.11441311 77 123 C76.34 123 75.68 123 75 123 C74.896875 124.134375 74.79375 125.26875 74.6875 126.4375 C73.34714288 137.28220761 69.49356244 147.67811098 66 158 C65.5359375 160.908125 65.5359375 160.908125 65.0625 163.875 C63 168 63 168 57.8125 166.6875 C55.51702813 165.50498419 53.24838544 164.26976283 51 163 C49.68128906 162.32066406 48.36257812 161.64132812 47.00390625 160.94140625 C38.54611487 156.45245548 31.89360352 151.61030475 25 145 C22.02095207 142.63997502 19.02414149 140.30195845 16 138 C11.33667162 134.26933729 7.89274768 130.49679473 4 126 C2.906875 124.96875 1.81375 123.9375 0.6875 122.875 C-22.84032922 98.15084048 -48.27584363 51.21638852 -49 17 C-46.0625 14.75 -46.0625 14.75 -42 13 C-40.5975 11.9275 -39.195 10.855 -37.75 9.75 C-34 7 -34 7 -31 7 C-30.67 5.68 -30.34 4.36 -30 3 C-19.87387003 -1.54377627 -10.7861918 -4.31447672 0 0 Z " transform="translate(56,476)" style="fill: #33393E;"/><path d="M0 0 C0.86249152 13.06058585 -2.6424527 19.18319841 -11 29 C-11.66 29 -12.32 29 -13 29 C-13 29.66 -13 30.32 -13 31 C-15.66329689 33.3371789 -18.33124173 35.66905923 -21 38 C-23.51363854 40.48628665 -26.01245617 42.98760558 -28.5 45.5 C-33.51153505 50.55126971 -38.60267646 55.36019555 -44 60 C-45.32 61.32 -46.64 62.64 -48 64 C-63.66161377 79.66161377 -81.54829635 93.12545112 -101 75 C-102.68816933 73.35511706 -104.35353315 71.68662458 -106 70 C-107.175625 68.88625 -108.35125 67.7725 -109.5625 66.625 C-124.513006 50.85901186 -114.65400159 33.1822235 -107 16 C-106.34773437 14.53175781 -105.69546875 13.06351562 -105.0234375 11.55078125 C-103.40099196 8.00584887 -101.71418244 4.50130881 -100 1 C-99.40316406 -0.27875 -98.80632813 -1.5575 -98.19140625 -2.875 C-97.59199219 -4.133125 -96.99257813 -5.39125 -96.375 -6.6875 C-95.84648438 -7.80511719 -95.31796875 -8.92273438 -94.7734375 -10.07421875 C-93 -13 -93 -13 -88 -17 C-87.67 -17.99 -87.34 -18.98 -87 -20 C-63.9844721 -36.11086953 -10.34768893 -31.4929663 0 0 Z " transform="translate(828,264)" style="fill: #343B41;"/><path d="M0 0 C1.32572021 0.0002417 2.65144043 0.0004834 4.01733398 0.00073242 C29.04779046 0.42634426 52.84241972 8.44159977 72.1875 24.5625 C74.53875 26.3259375 74.53875 26.3259375 76.9375 28.125 C89.31914309 38.13956426 95.76895617 52.39958766 88.1875 67.5625 C83.65657138 73.22616078 80.20112277 77.36214776 73.1875 79.5625 C72.1975 79.8925 71.2075 80.2225 70.1875 80.5625 C61.41362077 80.9280783 54.64942286 80.1816666 46.1875 77.5625 C44.785 77.27375 43.3825 76.985 41.9375 76.6875 C24.41399335 72.53719579 6.19340279 65.75304362 -9.8125 57.5 C-14.00209615 55.35372047 -14.00209615 55.35372047 -19.5 53.75 C-25.36750623 51.71670576 -30.34065835 49.29996122 -35.70703125 46.24609375 C-40.15599473 43.83413997 -44.79441315 41.98235206 -49.46875 40.0546875 C-57.99108884 36.46906933 -65.85658146 32.3719299 -73.703125 27.48046875 C-76.90227161 25.44349719 -76.90227161 25.44349719 -80.8125 23.5625 C-69.00206357 11.75206357 -45.74961803 6.98173623 -29.8125 3.5625 C-28.72300049 3.31314697 -27.63350098 3.06379395 -26.51098633 2.80688477 C-17.60353828 0.86610412 -9.11081796 -0.01585103 0 0 Z " transform="translate(872.8125,598.4375)" style="fill: #353A3E;"/><path d="M0 0 C1.69382812 -0.01675781 3.38765625 -0.03351563 5.1328125 -0.05078125 C17.40123914 0.88905703 24.41815496 8.45491214 25.23828125 20.765625 C24.83991042 27.94486706 23.23571005 34.26503388 21.0625 41.0625 C20.70607422 42.22910156 20.34964844 43.39570313 19.98242188 44.59765625 C14.51549671 62.3125 14.51549671 62.3125 11.875 62.3125 C11.74609375 63.31152344 11.6171875 64.31054688 11.484375 65.33984375 C10.79222422 69.85213442 9.30617241 72.87755057 7.125 76.875 C6.44953125 78.13441406 5.7740625 79.39382813 5.078125 80.69140625 C-7.99208565 102.17382694 -29.27197529 98.75296209 -50.8125 94.1875 C-52.19590576 93.90455078 -53.57931152 93.62160156 -55.00463867 93.33007812 C-74.35416541 88.98224076 -83.40883026 77.20258535 -81.125 57.3125 C-78.75 52.1875 -78.75 52.1875 -75.125 47.3125 C-73.98224609 45.75402344 -73.98224609 45.75402344 -72.81640625 44.1640625 C-67.61459015 37.20125718 -62.06415551 30.66409686 -56.125 24.3125 C-55.33351563 23.44496094 -54.54203125 22.57742188 -53.7265625 21.68359375 C-40.20531098 7.37324711 -19.50008766 0.04465669 0 0 Z " transform="translate(367.125,354.6875)" style="fill: #373D43;"/><path d="M0 0 C3.43489217 10.30467651 -0.17587252 21.4673196 -4.0625 31.125 C-6.04105714 36.10330507 -7.02631002 40.74207411 -8 46 C-10.86335232 59.02825303 -14.17111247 65 -28 65 C-39.56488877 61.41089659 -47.72636665 55.65074751 -57 48 C-59.2275 46.1746875 -59.2275 46.1746875 -61.5 44.3125 C-72.75068074 33.6645343 -64.76325045 21.75183404 -58 11 C-56.2865603 7.23043266 -54.7692401 3.41485883 -53.25 -0.4375 C-40.12359503 -27.0549323 -16.50538942 -18.73584745 0 0 Z " transform="translate(161,429)" style="fill: #383E44;"/><path d="M0 0 C2.7039373 7.54186434 3.43244605 14.12964866 3.4375 22.125 C3.45683594 24.16945313 3.47617187 26.21390625 3.49609375 28.3203125 C2.03862141 45.00664939 -10.81254964 54.09498471 -26.9609375 53.71484375 C-33.51628188 52.78489955 -39.66862043 50.94033675 -45.9375 48.875 C-47.08645752 48.49706299 -48.23541504 48.11912598 -49.41918945 47.72973633 C-60.13880628 43.97884459 -74.03400297 38.76306896 -70 25 C-65.65250716 18.67453293 -60.61621604 13.34779801 -55.1875 7.9375 C-53.67542969 6.42027344 -52.16335938 4.90304688 -50.60546875 3.33984375 C-46.25295335 -0.76163599 -41.78278044 -4.41630831 -37 -8 C-35.9275 -8.804375 -34.855 -9.60875 -33.75 -10.4375 C-21.88369256 -15.38179477 -6.72912644 -11.28756694 0 0 Z " transform="translate(683,248)" style="fill: #383E41;"/><path d="M0 0 C2.35587603 2.31057072 4.68602944 4.64746326 7 7 C8.381875 8.175625 9.76375 9.35125 11.1875 10.5625 C19 17.60655738 19 17.60655738 19 22 C19.66 22 20.32 22 21 22 C31.91474044 32.67219065 37.21023498 49.23720628 27 62 C22.24236986 66.75763014 19.82974252 66.9683231 13.3125 68.125 C5.78229928 69.4882241 5.78229928 69.4882241 -1.70703125 71.0546875 C-3.12371094 71.36664063 -4.54039063 71.67859375 -6 72 C-7.23105469 72.32677734 -8.46210938 72.65355469 -9.73046875 72.99023438 C-13 73 -13 73 -13.60546875 66.1015625 C-13.50653727 62.94118545 -13.36401775 59.78199414 -13.1875 56.625 C-13.11781006 54.9853125 -13.04812012 53.345625 -12.97631836 51.65625 C-12.30380374 38.21384639 -10.54564312 25.21813184 -8 12 C-7.66871094 9.834375 -7.33742188 7.66875 -6.99609375 5.4375 C-5.49654492 -2.74827246 -5.49654492 -2.74827246 0 0 Z " transform="translate(14,367)" style="fill: #33393F;"/><path d="M0 0 C0.64066406 2.10632813 1.28132812 4.21265625 1.94140625 6.3828125 C2.77478516 9.41082031 2.77478516 9.41082031 3.625 12.5 C4.25728516 14.72363281 4.25728516 14.72363281 4.90234375 16.9921875 C11.66818055 42.37045836 11.66818055 42.37045836 9.625 48.5 C5.5625 47.9375 5.5625 47.9375 -0.375 46.5 C-1.58285156 46.25121094 -2.79070313 46.00242187 -4.03515625 45.74609375 C-21.7719562 41.84924016 -48.10058978 32.35747054 -46.375 10.5 C-40.49315546 -5.92014933 -6.38604267 -21.5284932 0 0 Z " transform="translate(922.375,249.5)" style="fill: #393D42;"/></svg>